<svg width="78" height="94" viewBox="0 0 78 94" fill="none" xmlns="http://www.w3.org/2000/svg">
<path d="M5.66663 78.25V15.75C5.66663 12.9873 6.76409 10.3378 8.7176 8.38428C10.6711 6.43078 13.3206 5.33331 16.0833 5.33331H72.3333V88.6667H16.0833C13.3206 88.6667 10.6711 87.5692 8.7176 85.6157C6.76409 83.6622 5.66663 81.0127 5.66663 78.25ZM5.66663 78.25C5.66663 75.4873 6.76409 72.8378 8.7176 70.8843C10.6711 68.9308 13.3206 67.8333 16.0833 67.8333H72.3333" stroke="#CA8A04" stroke-width="10" stroke-linecap="round" stroke-linejoin="round"/>
<path d="M55.6666 31.1667C55.6666 26.1667 51.4999 22 46.4999 22C43.1666 22 40.6666 23.25 38.9999 25.75C37.3333 23.25 34.8333 22 31.4999 22C26.4999 22 22.3333 26.1667 22.3333 31.1667C22.3333 33.6667 23.5833 36.1667 25.2499 37.8333C30.6666 43.25 38.9999 51.1667 38.9999 51.1667C38.9999 51.1667 47.3333 43.25 52.7499 38.25C54.4166 36.5833 55.6666 34.0833 55.6666 31.1667Z" stroke="#CA8A04" stroke-width="10" stroke-linecap="round" stroke-linejoin="round"/>
</svg>
