<svg width="100" height="100" viewBox="0 0 100 100" fill="none" xmlns="http://www.w3.org/2000/svg">
<path fill-rule="evenodd" clip-rule="evenodd" d="M82.0357 2.70713C81.8834 2.09305 81.5706 1.53047 81.1295 1.07694C80.6883 0.623404 80.1346 0.295199 79.525 0.125901C78.9154 -0.0433973 78.2718 -0.0477116 77.6599 0.1134C77.0481 0.274511 76.49 0.595263 76.0429 1.04284L61.7571 15.3286C61.3215 15.7652 61.0063 16.3071 60.8423 16.9017C60.6783 17.4963 60.6711 18.1232 60.8214 18.7214L63.3929 29.0357C63.3591 29.0686 63.3257 29.1019 63.2929 29.1357L46.2143 46.2143C45.268 47.2298 44.7528 48.573 44.7773 49.9609C44.8018 51.3487 45.364 52.6729 46.3456 53.6544C47.3271 54.6359 48.6513 55.1982 50.0391 55.2227C51.427 55.2472 52.7702 54.732 53.7857 53.7857L70.8786 36.7143C70.9124 36.679 70.9457 36.6433 70.9786 36.6071L81.2857 39.1857C81.8839 39.336 82.5108 39.3288 83.1054 39.1648C83.7 39.0008 84.242 38.6856 84.6786 38.25L98.9643 23.9643C99.4137 23.5173 99.7361 22.9587 99.8983 22.3459C100.061 21.7332 100.057 21.0882 99.8873 20.4774C99.7178 19.8666 99.3889 19.3119 98.9342 18.8702C98.4795 18.4286 97.9155 18.1159 97.3 17.9643L85.0929 14.9214L82.0357 2.70713ZM52.2643 5.42141C52.3624 6.83834 51.8939 8.23625 50.9616 9.3078C50.0294 10.3793 48.7097 11.0368 47.2929 11.1357C39.83 11.6529 32.6724 14.3016 26.6707 18.7672C20.669 23.2328 16.0754 29.3275 13.4358 36.3271C10.7962 43.3267 10.2215 50.9369 11.78 58.2536C13.3385 65.5702 16.9647 72.2856 22.2277 77.6019C27.4907 82.9182 34.1693 86.6118 41.4699 88.2439C48.7704 89.8759 56.3861 89.3779 63.4119 86.8089C70.4377 84.2398 76.5783 79.7078 81.1041 73.7514C85.6299 67.7949 88.3506 60.6644 88.9428 53.2071C89.0556 51.7901 89.7266 50.4759 90.8083 49.5536C91.8899 48.6314 93.2937 48.1766 94.7107 48.2893C96.1277 48.402 97.4419 49.073 98.3642 50.1547C99.2865 51.2364 99.7413 52.6401 99.6286 54.0571C98.8727 63.5587 95.4051 72.6435 89.6379 80.2324C83.8707 87.8212 76.0463 93.595 67.0942 96.8678C58.1421 100.141 48.4387 100.775 39.1368 98.6951C29.8349 96.6153 21.3254 91.9091 14.6195 85.1355C7.91361 78.3619 3.29307 69.8057 1.30686 60.4833C-0.679348 51.161 0.052267 41.4644 3.41478 32.5457C6.7773 23.6269 12.6294 15.8608 20.2757 10.1701C27.9221 4.47942 37.0413 1.10329 46.55 0.442843C47.9669 0.34471 49.3648 0.813275 50.4364 1.74552C51.5079 2.67777 52.1654 4.00454 52.2643 5.42141ZM47.4643 28.9857C47.721 29.6409 47.8461 30.3402 47.8324 31.0438C47.8187 31.7473 47.6666 32.4413 47.3847 33.086C47.1028 33.7307 46.6966 34.3136 46.1894 34.8014C45.6822 35.2891 45.0839 35.6721 44.4286 35.9286C42.086 36.8474 40.0094 38.3356 38.3864 40.2585C36.7633 42.1815 35.6451 44.4785 35.1327 46.9421C34.6203 49.4057 34.7299 51.9582 35.4516 54.3688C36.1733 56.7794 37.4844 58.9722 39.2663 60.7489C41.0482 62.5256 43.2447 63.8302 45.6574 64.5449C48.0701 65.2596 50.6229 65.3618 53.085 64.8422C55.5471 64.3226 57.8409 63.1977 59.7591 61.5691C61.6773 59.9405 63.1594 57.8595 64.0714 55.5143C64.3266 54.8586 64.7084 54.2596 65.195 53.7515C65.6816 53.2434 66.2636 52.8361 66.9076 52.5528C67.5516 52.2696 68.2452 52.116 68.9486 52.1008C69.652 52.0856 70.3515 52.2091 71.0071 52.4643C71.6628 52.7194 72.2618 53.1012 72.7699 53.5878C73.2781 54.0745 73.6853 54.6564 73.9686 55.3005C74.2518 55.9445 74.4054 56.638 74.4206 57.3414C74.4358 58.0448 74.3123 58.7443 74.0571 59.4C72.4993 63.4049 69.9679 66.9583 66.6918 69.7392C63.4157 72.52 59.4982 74.4405 55.2934 75.327C51.0887 76.2135 46.7293 76.0382 42.6093 74.8167C38.4894 73.5953 34.7388 71.3663 31.6967 68.3313C28.6545 65.2963 26.4168 61.551 25.1857 57.4339C23.9546 53.3168 23.769 48.9578 24.6456 44.751C25.5223 40.5442 27.4336 36.6222 30.2067 33.3396C32.9798 30.057 36.5274 27.5172 40.5286 25.95C41.8509 25.4338 43.3241 25.4636 44.6245 26.0328C45.925 26.602 46.9463 27.664 47.4643 28.9857Z" fill="#CA8A04"/>
</svg>
